<?xml version="1.0" encoding="UTF-8"?>
<svg width="205px" height="103px" viewBox="0 0 205 103" version="1.1" xmlns="http://www.w3.org/2000/svg" xmlns:xlink="http://www.w3.org/1999/xlink">
    <!-- Generator: Sketch 52.6 (67491) - http://www.bohemiancoding.com/sketch -->
    <title>CFG_2_3-25</title>
    <desc>Created with Sketch.</desc>
    <defs>
        <polygon id="path-1" points="0.144418605 2.35056818 204.862605 2.35056818 204.862605 82.0789773 0.144418605 82.0789773"></polygon>
    </defs>
    <g id="Welcome" stroke="none" stroke-width="1" fill="none" fill-rule="evenodd">
        <g id="CFG_2_3-25" transform="translate(0.000000, -2.000000)">
            <g id="Group-5">
                <mask id="mask-2" fill="white">
                    <use xlink:href="#path-1"></use>
                </mask>
                <g id="Clip-2"></g>
                <path d="M130.956384,20.4320455 L129.013953,20.4320455 L124.97264,26.6222727 C121.814686,31.4618182 120.132209,37.1007955 120.124988,42.8638636 C120.105733,58.3847727 120.047965,79.3298864 120.047965,79.3298864 L113.500988,80.1627273 L113.498581,82.0121591 L141.674651,82.0789773 L141.677058,80.2295455 L130.956384,79.3513636 L130.956384,20.4320455" id="Fill-1" fill="#FFFFFF" mask="url(#mask-2)"></path>
                <polyline id="Fill-3" fill="#FFFFFF" mask="url(#mask-2)" points="195.220256 33.3565909 204.862605 33.3852273 204.862605 41.7184091 191.799942 41.7207955 190.866035 40.0503409 195.220256 33.3565909"></polyline>
                <polyline id="Fill-4" fill="#FFFFFF" mask="url(#mask-2)" points="0.00240697674 38.7044318 66.449407 2.35056818 67.383314 4.00431818 25.148093 68.7344318 23.1960349 68.7344318 22.977 47.8871591 0.82077907 40.0885227 0.00240697674 38.7044318"></polyline>
            </g>
            <polygon id="Fill-6" fill="#FFFFFF" points="113.58764 35.2704545 141.677058 35.2704545 141.677058 33.3565909 113.58764 33.3565909"></polygon>
            <polyline id="Fill-7" fill="#FFFFFF" points="137.727209 7.19965909 147.369558 7.22829545 147.369558 15.5614773 134.304488 15.5638636 133.370581 13.8934091 137.727209 7.19965909"></polyline>
            <path d="M185.017081,39.2342045 C179.750616,30.6719318 168.613535,32.0942045 166.119907,33.0940909 L167.089919,34.8695455 C170.498198,34.3135227 177.324384,35.4947727 177.899651,47.355 C178.30643,55.7573864 174.886116,59.5875 174.886116,59.5875 L175.824837,61.2555682 L183.315349,57.1605682 C188.21114,51.2543182 187.399988,43.1072727 185.017081,39.2342045" id="Fill-8" fill="#FFFFFF"></path>
            <g id="Group-12" transform="translate(144.418605, 35.795455)" fill="#FFFFFF">
                <path d="M13.9099186,12.4615909 C13.6138605,3.71318182 17.1641512,1.69193182 17.1641512,1.69193182 L16.2254302,0.02625 L8.7349186,4.11886364 C6.18833721,6.93477273 3.60565116,13.0247727 6.4482907,20.8043182 C10.4799767,31.8531818 23.5859651,29.0969318 25.879814,28.1829545 L24.945907,26.5029545 C22.0238372,27.0303409 14.3720581,25.9731818 13.9099186,12.4615909" id="Fill-9"></path>
                <path d="M4.57084884,35.2847727 C4.57084884,35.2847727 3.9955814,40.7328409 8.55198837,43.96875 C14.9184419,48.4885227 31.6084186,45.6726136 36.1720465,45.6726136 C41.0461744,45.6726136 44.1656163,47.9706818 44.8732674,51.2734091 C45.2439419,53.0106818 45.0080581,57.8406818 37.4549651,62.3342045 C29.4108488,67.12125 18.1702674,65.7204545 14.1241395,61.76625 C8.42201163,56.1893182 12.4753605,49.6530682 12.4753605,49.6530682 L11.5414535,47.9754545 L1.71376744,53.3567045 C1.71376744,53.3567045 0.019255814,60.4967045 6.76119767,66.3432955 C11.6305116,70.5647727 26.6283837,69.93 35.1442674,65.6536364 C43.2533721,61.5801136 50.717407,55.3326136 50.717407,46.9803409 C50.717407,30.6265909 19.7083256,40.3796591 14.9184419,36.5018182 C13.7895698,35.5878409 13.4381512,33.2515909 14.0206395,32.3018182 L13.0891395,30.6265909" id="Fill-11"></path>
            </g>
            <path d="M89.8813256,33.8004545 L88.9474186,32.1228409 C88.9474186,32.1228409 98.9772907,29.3475 105.242651,35.7047727" id="Fill-13" fill="#FFFFFF"></path>
            <polyline id="Fill-14" fill="#FFFFFF" points="96.1250233 34.44 103.545733 48.8202273 105.242651 47.8895455 105.242651 35.7047727 96.1250233 34.44"></polyline>
            <path d="M105.707198,73.8865909 L104.773291,72.2089773 C104.773291,72.2089773 93.7541512,78.0746591 84.3212093,74.3495455 C76.6477674,71.3188636 73.9688023,62.5632955 74.5368488,53.2373864 C75.2926395,40.8235227 82.7831512,37.6854545 82.7831512,37.6854545 L81.8492442,36.0078409 L69.3522209,42.8734091 C69.3522209,42.8734091 63.9100465,49.0660227 63.9100465,57.5328409 C63.9100465,74.34 73.7569884,83.5275 88.1747791,83.5275 L105.707198,73.8865909" id="Fill-15" fill="#FFFFFF"></path>
        </g>
    </g>
</svg>