<?xml version="1.0" encoding="UTF-8"?>
<svg width="520px" height="360px" viewBox="0 0 520 360" version="1.1" xmlns="http://www.w3.org/2000/svg" xmlns:xlink="http://www.w3.org/1999/xlink">
    <!-- Generator: Sketch 52.6 (67491) - http://www.bohemiancoding.com/sketch -->
    <title>Page 1</title>
    <desc>Created with Sketch.</desc>
    <defs>
        <polygon id="path-1" points="0 0.7491 254.4899 0.7491 254.4899 360 0 360"></polygon>
        <polygon id="path-3" points="0.2236 0.7491 238.406 0.7491 238.406 353.5761 0.2236 353.5761"></polygon>
    </defs>
    <g id="Welcome" stroke="none" stroke-width="1" fill="none" fill-rule="evenodd">
        <g id="Ценности" transform="translate(-1112.000000, -1593.000000)">
            <g id="Page-1" transform="translate(1112.000000, 1592.000000)">
                <g id="Group-3" transform="translate(0.000000, 0.251000)">
                    <mask id="mask-2" fill="white">
                        <use xlink:href="#path-1"></use>
                    </mask>
                    <g id="Clip-2"></g>
                    <path d="M211.0049,180.6221 C211.0049,94.6391 184.8149,39.2931 126.9979,39.2931 C69.6759,39.2931 43.4849,94.6391 43.4849,180.6221 C43.4849,266.1101 69.6759,321.4561 126.9979,321.4561 C184.8149,321.4561 211.0049,266.1101 211.0049,180.6221 M254.4899,180.6221 C254.4899,305.1481 200.1329,360.0001 126.9979,360.0001 C53.8629,360.0001 -0.0001,305.1481 -0.0001,180.6221 C-0.0001,56.0951 53.8629,0.7491 126.9979,0.7491 C200.1329,0.7491 254.4899,56.0951 254.4899,180.6221" id="Fill-1" fill="#F3F2F2" mask="url(#mask-2)"></path>
                </g>
                <g id="Group-6" transform="translate(281.000000, 0.251000)">
                    <mask id="mask-4" fill="white">
                        <use xlink:href="#path-3"></use>
                    </mask>
                    <g id="Clip-5"></g>
                    <path d="M0.2236,103.0391 C4.1766,33.8571 54.0866,0.7491 115.3616,0.7491 C180.0966,0.7491 227.5356,36.8221 227.5356,106.0041 C227.5356,152.9491 191.9556,196.9291 150.9416,231.0251 L63.9696,304.1601 L63.9696,315.0321 L238.4066,315.0321 L238.4066,353.5761 L0.7176,353.5761 L0.7176,304.6541 L51.6156,263.1451 C79.2876,240.9081 111.9026,213.2361 130.1866,196.4351 C153.9066,175.1851 184.0496,147.0181 184.0496,106.0041 C184.0496,62.5181 156.3766,39.2931 114.3726,39.2931 C75.3346,39.2931 48.1566,59.5541 43.7086,103.0391 L0.2236,103.0391 Z" id="Fill-4" fill="#F3F2F2" mask="url(#mask-4)"></path>
                </g>
            </g>
        </g>
    </g>
</svg>