<?xml version="1.0" encoding="UTF-8"?>
<svg width="207px" height="105px" viewBox="0 0 207 105" version="1.1" xmlns="http://www.w3.org/2000/svg" xmlns:xlink="http://www.w3.org/1999/xlink">
    <!-- Generator: Sketch 52.6 (67491) - http://www.bohemiancoding.com/sketch -->
    <title>CFG_2_3-14 Copy</title>
    <desc>Created with Sketch.</desc>
    <defs>
        <polygon id="path-1" points="0.06 0.753 67.845 0.753 67.845 68.169 0.06 68.169"></polygon>
    </defs>
    <g id="Welcome" stroke="none" stroke-width="1" fill="none" fill-rule="evenodd">
        <g id="Главный-экран+про-нас" transform="translate(-80.000000, -1110.000000)">
            <g id="CFG_2_3-14-Copy" transform="translate(80.000000, 1110.000000)">
                <g id="Group-3">
                    <mask id="mask-2" fill="white">
                        <use xlink:href="#path-1"></use>
                    </mask>
                    <g id="Clip-2"></g>
                    <polyline id="Fill-1" fill="#CA8662" mask="url(#mask-2)" points="0 37.674 66.906 0.753 67.845 2.433 25.32 68.169 23.354 68.169 23.134 47 0.824 39.08 0 37.674"></polyline>
                </g>
                <path d="M131.854,19.116 L129.896,19.116 L125.829,25.402 C124.443,27.545 123.358,29.848 122.553,32.242 L114.367,32.242 L114.367,34.187 L121.97,34.187 C121.31,36.692 120.951,39.28 120.948,41.897 C120.928,57.66 120.87,78.929 120.87,78.929 L114.279,79.776 L114.277,81.653 L142.645,81.721 L142.648,79.844 L131.854,78.953 L131.854,34.187 L142.648,34.187 L142.648,32.242 L131.854,32.242 L131.854,19.116" id="Fill-4" fill="#231F20"></path>
                <polyline id="Fill-5" fill="#231F20" points="196.559 32.242 192.173 39.04 193.113 40.736 206.267 40.734 206.267 32.272 196.559 32.242"></polyline>
                <polyline id="Fill-6" fill="#231F20" points="148.378 14.171 148.378 5.708 138.669 5.678 134.284 12.476 135.223 14.172 148.378 14.171"></polyline>
                <path d="M179.119,46.459 C179.529,54.99 176.083,58.882 176.083,58.882 L177.029,60.574 L184.572,56.417 C189.501,50.419 188.685,42.146 186.286,38.212 C180.982,29.515 169.769,30.961 167.256,31.975 L168.233,33.778 C171.666,33.215 178.539,34.413 179.119,46.459" id="Fill-7" fill="#231F20"></path>
                <g id="Group-11" transform="translate(146.000000, 34.000000)" fill="#231F20">
                    <path d="M25.464,29.34 L24.524,27.633 C21.583,28.17 13.876,27.097 13.414,13.375 C13.114,4.489 16.689,2.438 16.689,2.438 L15.744,0.746 L8.201,4.903 C5.638,7.762 3.039,13.946 5.899,21.846 C9.96,33.067 23.156,30.268 25.464,29.34" id="Fill-8"></path>
                    <path d="M14.429,37.789 C13.292,36.86 12.938,34.486 13.524,33.524 L12.584,31.821 L4.012,36.553 C4.012,36.553 3.431,42.085 8.018,45.37 C14.429,49.962 31.233,47.101 35.828,47.101 C40.734,47.101 43.876,49.435 44.588,52.791 C44.962,54.553 44.726,59.459 37.12,64.024 C29.019,68.885 17.702,67.461 13.63,63.446 C7.887,57.782 11.969,51.144 11.969,51.144 L11.029,49.442 L1.132,54.904 C1.132,54.904 -0.574,62.156 6.215,68.094 C11.118,72.382 26.221,71.736 34.792,67.393 C42.956,63.256 50.474,56.912 50.474,48.431 C50.474,31.821 19.251,41.726 14.429,37.789" id="Fill-10"></path>
                </g>
                <path d="M96.857,33.488 L104.255,47.946 L105.961,47 L105.961,34.626 C99.654,28.171 89.557,30.99 89.557,30.99 L90.497,32.692 L96.857,33.488" id="Fill-12" fill="#231F20"></path>
                <path d="M84.899,73.873 C77.171,70.794 74.475,61.903 75.047,52.432 C75.809,39.825 83.349,36.638 83.349,36.638 L82.409,34.936 L69.827,41.906 C69.827,41.906 64.347,48.195 64.347,56.795 C64.347,73.863 74.261,83.192 88.776,83.192 L106.431,73.402 L105.492,71.699 C105.492,71.699 94.396,77.657 84.899,73.873" id="Fill-13" fill="#231F20"></path>
            </g>
        </g>
    </g>
</svg>