<?xml version="1.0" encoding="UTF-8"?>
<svg width="520px" height="360px" viewBox="0 0 520 360" version="1.1" xmlns="http://www.w3.org/2000/svg" xmlns:xlink="http://www.w3.org/1999/xlink">
    <!-- Generator: Sketch 52.6 (67491) - http://www.bohemiancoding.com/sketch -->
    <title>Page 1</title>
    <desc>Created with Sketch.</desc>
    <defs>
        <polygon id="path-1" points="0.0004 0.7491 254.4904 0.7491 254.4904 360 0.0004 360"></polygon>
    </defs>
    <g id="Welcome" stroke="none" stroke-width="1" fill="none" fill-rule="evenodd">
        <g id="Ценности" transform="translate(-583.000000, -3460.000000)">
            <g id="Page-1" transform="translate(583.000000, 3459.000000)">
                <g id="Group-3" transform="translate(0.000000, 0.251000)">
                    <mask id="mask-2" fill="white">
                        <use xlink:href="#path-1"></use>
                    </mask>
                    <g id="Clip-2"></g>
                    <path d="M211.0044,180.6211 C211.0044,94.6391 184.8144,39.2931 126.9984,39.2931 C69.6754,39.2931 43.4854,94.6391 43.4854,180.6211 C43.4854,266.1101 69.6754,321.4561 126.9984,321.4561 C184.8144,321.4561 211.0044,266.1101 211.0044,180.6211 M254.4904,180.6211 C254.4904,305.1481 200.1324,360.0001 126.9984,360.0001 C53.8624,360.0001 0.0004,305.1481 0.0004,180.6211 C0.0004,56.0941 53.8624,0.7491 126.9984,0.7491 C200.1324,0.7491 254.4904,56.0941 254.4904,180.6211" id="Fill-1" fill="#F3F2F2" mask="url(#mask-2)"></path>
                </g>
                <path d="M503.0005,7.918 L503.0005,56.345 L416.5235,130.469 L416.5235,140.847 C475.8225,142.329 519.3075,179.39 519.3075,246.101 C519.3075,317.754 467.9155,360.251 397.2515,360.251 C327.0815,360.251 280.1365,315.777 276.1835,256.973 L319.6685,256.973 C323.6225,296.505 355.7425,321.707 397.2515,321.707 C444.6905,321.707 475.8225,293.54 475.8225,246.101 C475.8225,200.639 448.6435,172.472 397.7455,172.472 C385.3915,172.472 375.5085,173.46 367.6025,175.437 L367.6025,129.481 L452.1025,56.345 L452.1025,45.474 L300.8905,45.474 L300.8905,7.918 L503.0005,7.918 Z" id="Fill-4" fill="#F3F2F2"></path>
            </g>
        </g>
    </g>
</svg>